<?xml version="1.0" standalone="no"?><svg xmlns="http://www.w3.org/2000/svg" viewBox="0 0 1440 320"><path fill="#000000" fill-opacity="0.8" d="M0,32L0,160L46.5,160L46.5,32L92.9,32L92.9,320L139.4,320L139.4,64L185.8,64L185.8,128L232.3,128L232.3,128L278.7,128L278.7,320L325.2,320L325.2,160L371.6,160L371.6,224L418.1,224L418.1,32L464.5,32L464.5,32L511,32L511,224L557.4,224L557.4,160L603.9,160L603.9,128L650.3,128L650.3,256L696.8,256L696.8,64L743.2,64L743.2,96L789.7,96L789.7,224L836.1,224L836.1,160L882.6,160L882.6,288L929,288L929,288L975.5,288L975.5,224L1021.9,224L1021.9,256L1068.4,256L1068.4,288L1114.8,288L1114.8,224L1161.3,224L1161.3,32L1207.7,32L1207.7,64L1254.2,64L1254.2,64L1300.6,64L1300.6,160L1347.1,160L1347.1,160L1393.5,160L1393.5,320L1440,320L1440,320L1393.5,320L1393.5,320L1347.1,320L1347.1,320L1300.6,320L1300.6,320L1254.2,320L1254.2,320L1207.7,320L1207.7,320L1161.3,320L1161.3,320L1114.8,320L1114.8,320L1068.4,320L1068.4,320L1021.9,320L1021.9,320L975.5,320L975.5,320L929,320L929,320L882.6,320L882.6,320L836.1,320L836.1,320L789.7,320L789.7,320L743.2,320L743.2,320L696.8,320L696.8,320L650.3,320L650.3,320L603.9,320L603.9,320L557.4,320L557.4,320L511,320L511,320L464.5,320L464.5,320L418.1,320L418.1,320L371.6,320L371.6,320L325.2,320L325.2,320L278.7,320L278.7,320L232.3,320L232.3,320L185.8,320L185.8,320L139.4,320L139.4,320L92.9,320L92.9,320L46.5,320L46.5,320L0,320L0,320Z"></path></svg>